<mxfile host="app.diagrams.net" modified="2023-04-10T21:42:40.485Z" agent="Mozilla/5.0 (Windows NT 10.0; Win64; x64) AppleWebKit/537.36 (KHTML, like Gecko) Chrome/111.0.0.0 Safari/537.36" etag="OQfn7LgJo-gXVraFavYR" version="21.1.4" type="github">
  <diagram name="Página-1" id="aOVFpI5nqNMQHP_OmtkT">
    <mxGraphModel dx="880" dy="484" grid="1" gridSize="10" guides="1" tooltips="1" connect="1" arrows="1" fold="1" page="1" pageScale="1" pageWidth="827" pageHeight="1169" math="0" shadow="0">
      <root>
        <mxCell id="0" />
        <mxCell id="1" parent="0" />
        <mxCell id="46b8FPJ8oIQYjBxFFqZP-1" value="Calculadora" style="swimlane;fontStyle=2;align=center;verticalAlign=top;childLayout=stackLayout;horizontal=1;startSize=26;horizontalStack=0;resizeParent=1;resizeLast=0;collapsible=1;marginBottom=0;rounded=0;shadow=0;strokeWidth=1;" parent="1" vertex="1">
          <mxGeometry x="40" y="80" width="160" height="70" as="geometry">
            <mxRectangle x="230" y="140" width="160" height="26" as="alternateBounds" />
          </mxGeometry>
        </mxCell>
        <mxCell id="46b8FPJ8oIQYjBxFFqZP-2" value="" style="line;html=1;strokeWidth=1;align=left;verticalAlign=middle;spacingTop=-1;spacingLeft=3;spacingRight=3;rotatable=0;labelPosition=right;points=[];portConstraint=eastwest;" parent="46b8FPJ8oIQYjBxFFqZP-1" vertex="1">
          <mxGeometry y="26" width="160" height="8" as="geometry" />
        </mxCell>
        <mxCell id="46b8FPJ8oIQYjBxFFqZP-3" value="+ main(): void" style="text;align=left;verticalAlign=top;spacingLeft=4;spacingRight=4;overflow=hidden;rotatable=0;points=[[0,0.5],[1,0.5]];portConstraint=eastwest;" parent="46b8FPJ8oIQYjBxFFqZP-1" vertex="1">
          <mxGeometry y="34" width="160" height="26" as="geometry" />
        </mxCell>
        <mxCell id="46b8FPJ8oIQYjBxFFqZP-4" value="Operacao" style="swimlane;fontStyle=0;align=center;verticalAlign=top;childLayout=stackLayout;horizontal=1;startSize=26;horizontalStack=0;resizeParent=1;resizeLast=0;collapsible=1;marginBottom=0;rounded=0;shadow=0;strokeWidth=1;" parent="1" vertex="1">
          <mxGeometry x="360" y="80" width="280" height="70" as="geometry">
            <mxRectangle x="550" y="140" width="160" height="26" as="alternateBounds" />
          </mxGeometry>
        </mxCell>
        <mxCell id="46b8FPJ8oIQYjBxFFqZP-5" value="" style="line;html=1;strokeWidth=1;align=left;verticalAlign=middle;spacingTop=-1;spacingLeft=3;spacingRight=3;rotatable=0;labelPosition=right;points=[];portConstraint=eastwest;" parent="46b8FPJ8oIQYjBxFFqZP-4" vertex="1">
          <mxGeometry y="26" width="280" height="8" as="geometry" />
        </mxCell>
        <mxCell id="46b8FPJ8oIQYjBxFFqZP-6" value="+ calcular(prm1:int, prm2: int):float" style="text;align=left;verticalAlign=top;spacingLeft=4;spacingRight=4;overflow=hidden;rotatable=0;points=[[0,0.5],[1,0.5]];portConstraint=eastwest;" parent="46b8FPJ8oIQYjBxFFqZP-4" vertex="1">
          <mxGeometry y="34" width="280" height="30" as="geometry" />
        </mxCell>
        <mxCell id="46b8FPJ8oIQYjBxFFqZP-7" value="Calculadora Herança e Polimorfismo" style="text;strokeColor=none;fillColor=none;align=center;verticalAlign=middle;spacingLeft=4;spacingRight=4;overflow=hidden;points=[[0,0.5],[1,0.5]];portConstraint=eastwest;rotatable=0;whiteSpace=wrap;html=1;fontStyle=0;fontSize=17;" parent="1" vertex="1">
          <mxGeometry x="284" y="40" width="300" height="30" as="geometry" />
        </mxCell>
        <mxCell id="46b8FPJ8oIQYjBxFFqZP-8" style="edgeStyle=orthogonalEdgeStyle;rounded=0;orthogonalLoop=1;jettySize=auto;html=1;exitX=1;exitY=0.5;exitDx=0;exitDy=0;entryX=0;entryY=0.5;entryDx=0;entryDy=0;endArrow=none;endFill=0;" parent="1" edge="1">
          <mxGeometry relative="1" as="geometry">
            <mxPoint x="200" y="119" as="sourcePoint" />
            <mxPoint x="360" y="119" as="targetPoint" />
          </mxGeometry>
        </mxCell>
        <mxCell id="46b8FPJ8oIQYjBxFFqZP-9" value="Parent&amp;nbsp; &amp;nbsp; &amp;nbsp; &amp;nbsp; &amp;nbsp; &amp;nbsp; &amp;nbsp; &amp;nbsp; &amp;nbsp; &amp;nbsp; &amp;nbsp; &amp;nbsp; &amp;nbsp; Child" style="text;strokeColor=none;fillColor=none;align=left;verticalAlign=middle;spacingLeft=4;spacingRight=4;overflow=hidden;points=[[0,0.5],[1,0.5]];portConstraint=eastwest;rotatable=0;whiteSpace=wrap;html=1;" parent="1" vertex="1">
          <mxGeometry x="200" y="90" width="160" height="30" as="geometry" />
        </mxCell>
        <mxCell id="46b8FPJ8oIQYjBxFFqZP-10" value="Adicao" style="swimlane;fontStyle=0;align=center;verticalAlign=top;childLayout=stackLayout;horizontal=1;startSize=26;horizontalStack=0;resizeParent=1;resizeLast=0;collapsible=1;marginBottom=0;rounded=0;shadow=0;strokeWidth=1;" parent="1" vertex="1">
          <mxGeometry x="40" y="220" width="210" height="70" as="geometry">
            <mxRectangle x="550" y="140" width="160" height="26" as="alternateBounds" />
          </mxGeometry>
        </mxCell>
        <mxCell id="46b8FPJ8oIQYjBxFFqZP-11" value="" style="line;html=1;strokeWidth=1;align=left;verticalAlign=middle;spacingTop=-1;spacingLeft=3;spacingRight=3;rotatable=0;labelPosition=right;points=[];portConstraint=eastwest;" parent="46b8FPJ8oIQYjBxFFqZP-10" vertex="1">
          <mxGeometry y="26" width="210" height="8" as="geometry" />
        </mxCell>
        <mxCell id="46b8FPJ8oIQYjBxFFqZP-12" style="edgeStyle=orthogonalEdgeStyle;rounded=0;orthogonalLoop=1;jettySize=auto;html=1;exitX=1;exitY=0.5;exitDx=0;exitDy=0;endArrow=block;endFill=0;" parent="46b8FPJ8oIQYjBxFFqZP-10" source="46b8FPJ8oIQYjBxFFqZP-13" edge="1">
          <mxGeometry relative="1" as="geometry">
            <mxPoint x="340" y="-70" as="targetPoint" />
          </mxGeometry>
        </mxCell>
        <mxCell id="46b8FPJ8oIQYjBxFFqZP-13" value="+ calcular(prm1:int, prm2: int):float" style="text;align=left;verticalAlign=top;spacingLeft=4;spacingRight=4;overflow=hidden;rotatable=0;points=[[0,0.5],[1,0.5]];portConstraint=eastwest;" parent="46b8FPJ8oIQYjBxFFqZP-10" vertex="1">
          <mxGeometry y="34" width="210" height="30" as="geometry" />
        </mxCell>
        <mxCell id="46b8FPJ8oIQYjBxFFqZP-14" value="Extends" style="text;html=1;align=center;verticalAlign=middle;resizable=0;points=[];autosize=1;strokeColor=none;fillColor=none;" parent="1" vertex="1">
          <mxGeometry x="280" y="240" width="70" height="30" as="geometry" />
        </mxCell>
        <mxCell id="46b8FPJ8oIQYjBxFFqZP-15" value="Subtracao" style="swimlane;fontStyle=0;align=center;verticalAlign=top;childLayout=stackLayout;horizontal=1;startSize=26;horizontalStack=0;resizeParent=1;resizeLast=0;collapsible=1;marginBottom=0;rounded=0;shadow=0;strokeWidth=1;" parent="1" vertex="1">
          <mxGeometry x="40" y="310" width="210" height="70" as="geometry">
            <mxRectangle x="550" y="140" width="160" height="26" as="alternateBounds" />
          </mxGeometry>
        </mxCell>
        <mxCell id="46b8FPJ8oIQYjBxFFqZP-16" value="" style="line;html=1;strokeWidth=1;align=left;verticalAlign=middle;spacingTop=-1;spacingLeft=3;spacingRight=3;rotatable=0;labelPosition=right;points=[];portConstraint=eastwest;" parent="46b8FPJ8oIQYjBxFFqZP-15" vertex="1">
          <mxGeometry y="26" width="210" height="8" as="geometry" />
        </mxCell>
        <mxCell id="46b8FPJ8oIQYjBxFFqZP-17" style="edgeStyle=orthogonalEdgeStyle;rounded=0;orthogonalLoop=1;jettySize=auto;html=1;exitX=1;exitY=0.5;exitDx=0;exitDy=0;endArrow=block;endFill=0;" parent="46b8FPJ8oIQYjBxFFqZP-15" source="46b8FPJ8oIQYjBxFFqZP-18" edge="1">
          <mxGeometry relative="1" as="geometry">
            <mxPoint x="360" y="-160" as="targetPoint" />
            <Array as="points">
              <mxPoint x="210" y="50" />
              <mxPoint x="360" y="50" />
              <mxPoint x="360" y="-10" />
            </Array>
          </mxGeometry>
        </mxCell>
        <mxCell id="46b8FPJ8oIQYjBxFFqZP-18" value="+ calcular(prm1:int, prm2: int):float" style="text;align=left;verticalAlign=top;spacingLeft=4;spacingRight=4;overflow=hidden;rotatable=0;points=[[0,0.5],[1,0.5]];portConstraint=eastwest;" parent="46b8FPJ8oIQYjBxFFqZP-15" vertex="1">
          <mxGeometry y="34" width="210" height="30" as="geometry" />
        </mxCell>
        <mxCell id="46b8FPJ8oIQYjBxFFqZP-19" value="Multiplicacao" style="swimlane;fontStyle=0;align=center;verticalAlign=top;childLayout=stackLayout;horizontal=1;startSize=26;horizontalStack=0;resizeParent=1;resizeLast=0;collapsible=1;marginBottom=0;rounded=0;shadow=0;strokeWidth=1;" parent="1" vertex="1">
          <mxGeometry x="620" y="220" width="210" height="70" as="geometry">
            <mxRectangle x="550" y="140" width="160" height="26" as="alternateBounds" />
          </mxGeometry>
        </mxCell>
        <mxCell id="46b8FPJ8oIQYjBxFFqZP-20" value="" style="line;html=1;strokeWidth=1;align=left;verticalAlign=middle;spacingTop=-1;spacingLeft=3;spacingRight=3;rotatable=0;labelPosition=right;points=[];portConstraint=eastwest;" parent="46b8FPJ8oIQYjBxFFqZP-19" vertex="1">
          <mxGeometry y="26" width="210" height="8" as="geometry" />
        </mxCell>
        <mxCell id="46b8FPJ8oIQYjBxFFqZP-21" value="+ calcular(prm1:int, prm2: int):float" style="text;align=left;verticalAlign=top;spacingLeft=4;spacingRight=4;overflow=hidden;rotatable=0;points=[[0,0.5],[1,0.5]];portConstraint=eastwest;" parent="46b8FPJ8oIQYjBxFFqZP-19" vertex="1">
          <mxGeometry y="34" width="210" height="30" as="geometry" />
        </mxCell>
        <mxCell id="46b8FPJ8oIQYjBxFFqZP-22" style="edgeStyle=orthogonalEdgeStyle;rounded=0;orthogonalLoop=1;jettySize=auto;html=1;exitX=0;exitY=0.5;exitDx=0;exitDy=0;endArrow=block;endFill=0;" parent="1" source="46b8FPJ8oIQYjBxFFqZP-21" edge="1">
          <mxGeometry relative="1" as="geometry">
            <mxPoint x="550" y="150" as="targetPoint" />
          </mxGeometry>
        </mxCell>
        <mxCell id="46b8FPJ8oIQYjBxFFqZP-23" value="Extends" style="text;html=1;align=center;verticalAlign=middle;resizable=0;points=[];autosize=1;strokeColor=none;fillColor=none;" parent="1" vertex="1">
          <mxGeometry x="280" y="330" width="70" height="30" as="geometry" />
        </mxCell>
        <mxCell id="46b8FPJ8oIQYjBxFFqZP-24" value="Extends" style="text;html=1;align=center;verticalAlign=middle;resizable=0;points=[];autosize=1;strokeColor=none;fillColor=none;" parent="1" vertex="1">
          <mxGeometry x="550" y="240" width="70" height="30" as="geometry" />
        </mxCell>
        <mxCell id="46b8FPJ8oIQYjBxFFqZP-25" value="Divisao" style="swimlane;fontStyle=0;align=center;verticalAlign=top;childLayout=stackLayout;horizontal=1;startSize=26;horizontalStack=0;resizeParent=1;resizeLast=0;collapsible=1;marginBottom=0;rounded=0;shadow=0;strokeWidth=1;" parent="1" vertex="1">
          <mxGeometry x="620" y="310" width="210" height="70" as="geometry">
            <mxRectangle x="550" y="140" width="160" height="26" as="alternateBounds" />
          </mxGeometry>
        </mxCell>
        <mxCell id="46b8FPJ8oIQYjBxFFqZP-26" value="" style="line;html=1;strokeWidth=1;align=left;verticalAlign=middle;spacingTop=-1;spacingLeft=3;spacingRight=3;rotatable=0;labelPosition=right;points=[];portConstraint=eastwest;" parent="46b8FPJ8oIQYjBxFFqZP-25" vertex="1">
          <mxGeometry y="26" width="210" height="8" as="geometry" />
        </mxCell>
        <mxCell id="46b8FPJ8oIQYjBxFFqZP-27" style="edgeStyle=orthogonalEdgeStyle;rounded=0;orthogonalLoop=1;jettySize=auto;html=1;exitX=0;exitY=0.5;exitDx=0;exitDy=0;endArrow=block;endFill=0;" parent="46b8FPJ8oIQYjBxFFqZP-25" source="46b8FPJ8oIQYjBxFFqZP-28" edge="1">
          <mxGeometry relative="1" as="geometry">
            <mxPoint x="-90" y="-160" as="targetPoint" />
          </mxGeometry>
        </mxCell>
        <mxCell id="46b8FPJ8oIQYjBxFFqZP-28" value="+ calcular(prm1:int, prm2: int):float" style="text;align=left;verticalAlign=top;spacingLeft=4;spacingRight=4;overflow=hidden;rotatable=0;points=[[0,0.5],[1,0.5]];portConstraint=eastwest;" parent="46b8FPJ8oIQYjBxFFqZP-25" vertex="1">
          <mxGeometry y="34" width="210" height="30" as="geometry" />
        </mxCell>
        <mxCell id="46b8FPJ8oIQYjBxFFqZP-29" value="Extends" style="text;html=1;align=center;verticalAlign=middle;resizable=0;points=[];autosize=1;strokeColor=none;fillColor=none;" parent="1" vertex="1">
          <mxGeometry x="540" y="330" width="70" height="30" as="geometry" />
        </mxCell>
        <mxCell id="46b8FPJ8oIQYjBxFFqZP-30" value="Exponenciacao" style="swimlane;fontStyle=0;align=center;verticalAlign=top;childLayout=stackLayout;horizontal=1;startSize=26;horizontalStack=0;resizeParent=1;resizeLast=0;collapsible=1;marginBottom=0;rounded=0;shadow=0;strokeWidth=1;" parent="1" vertex="1">
          <mxGeometry x="140" y="400" width="210" height="70" as="geometry">
            <mxRectangle x="550" y="140" width="160" height="26" as="alternateBounds" />
          </mxGeometry>
        </mxCell>
        <mxCell id="46b8FPJ8oIQYjBxFFqZP-31" value="" style="line;html=1;strokeWidth=1;align=left;verticalAlign=middle;spacingTop=-1;spacingLeft=3;spacingRight=3;rotatable=0;labelPosition=right;points=[];portConstraint=eastwest;" parent="46b8FPJ8oIQYjBxFFqZP-30" vertex="1">
          <mxGeometry y="26" width="210" height="8" as="geometry" />
        </mxCell>
        <mxCell id="46b8FPJ8oIQYjBxFFqZP-32" style="edgeStyle=orthogonalEdgeStyle;rounded=0;orthogonalLoop=1;jettySize=auto;html=1;exitX=1;exitY=0.5;exitDx=0;exitDy=0;endArrow=block;endFill=0;" parent="46b8FPJ8oIQYjBxFFqZP-30" source="46b8FPJ8oIQYjBxFFqZP-33" edge="1">
          <mxGeometry relative="1" as="geometry">
            <mxPoint x="280" y="-250" as="targetPoint" />
          </mxGeometry>
        </mxCell>
        <mxCell id="46b8FPJ8oIQYjBxFFqZP-33" value="+ calcular(prm1:int, prm2: int):float" style="text;align=left;verticalAlign=top;spacingLeft=4;spacingRight=4;overflow=hidden;rotatable=0;points=[[0,0.5],[1,0.5]];portConstraint=eastwest;" parent="46b8FPJ8oIQYjBxFFqZP-30" vertex="1">
          <mxGeometry y="34" width="210" height="30" as="geometry" />
        </mxCell>
        <mxCell id="46b8FPJ8oIQYjBxFFqZP-34" value="Extends" style="text;html=1;align=center;verticalAlign=middle;resizable=0;points=[];autosize=1;strokeColor=none;fillColor=none;" parent="1" vertex="1">
          <mxGeometry x="350" y="420" width="70" height="30" as="geometry" />
        </mxCell>
        <mxCell id="46b8FPJ8oIQYjBxFFqZP-35" value="Fatorial" style="swimlane;fontStyle=0;align=center;verticalAlign=top;childLayout=stackLayout;horizontal=1;startSize=26;horizontalStack=0;resizeParent=1;resizeLast=0;collapsible=1;marginBottom=0;rounded=0;shadow=0;strokeWidth=1;" parent="1" vertex="1">
          <mxGeometry x="520" y="400" width="210" height="70" as="geometry">
            <mxRectangle x="550" y="140" width="160" height="26" as="alternateBounds" />
          </mxGeometry>
        </mxCell>
        <mxCell id="46b8FPJ8oIQYjBxFFqZP-36" value="" style="line;html=1;strokeWidth=1;align=left;verticalAlign=middle;spacingTop=-1;spacingLeft=3;spacingRight=3;rotatable=0;labelPosition=right;points=[];portConstraint=eastwest;" parent="46b8FPJ8oIQYjBxFFqZP-35" vertex="1">
          <mxGeometry y="26" width="210" height="8" as="geometry" />
        </mxCell>
        <mxCell id="46b8FPJ8oIQYjBxFFqZP-37" style="edgeStyle=orthogonalEdgeStyle;rounded=0;orthogonalLoop=1;jettySize=auto;html=1;exitX=0;exitY=0.5;exitDx=0;exitDy=0;endArrow=block;endFill=0;" parent="46b8FPJ8oIQYjBxFFqZP-35" source="46b8FPJ8oIQYjBxFFqZP-38" edge="1">
          <mxGeometry relative="1" as="geometry">
            <mxPoint x="-70" y="-250" as="targetPoint" />
          </mxGeometry>
        </mxCell>
        <mxCell id="46b8FPJ8oIQYjBxFFqZP-38" value="+ calcular(prm1:int, prm2: int):float" style="text;align=left;verticalAlign=top;spacingLeft=4;spacingRight=4;overflow=hidden;rotatable=0;points=[[0,0.5],[1,0.5]];portConstraint=eastwest;" parent="46b8FPJ8oIQYjBxFFqZP-35" vertex="1">
          <mxGeometry y="34" width="210" height="30" as="geometry" />
        </mxCell>
        <mxCell id="46b8FPJ8oIQYjBxFFqZP-39" value="Extends" style="text;html=1;align=center;verticalAlign=middle;resizable=0;points=[];autosize=1;strokeColor=none;fillColor=none;" parent="1" vertex="1">
          <mxGeometry x="450" y="420" width="70" height="30" as="geometry" />
        </mxCell>
      </root>
    </mxGraphModel>
  </diagram>
</mxfile>
